/* XPM */
static const char *EAST_WALL[] = {
/* columns rows colors chars-per-pixel */
"64 64 150 2 ",
"   c #000000",
".  c #000C02",
"X  c #001402",
"o  c #001A06",
"O  c #002C05",
"+  c #002209",
"@  c #002C0B",
"#  c #003B04",
"$  c #00330C",
"%  c #003A0E",
"&  c #003D10",
"*  c #00410F",
"=  c #005E06",
"-  c #00550D",
";  c #005F0D",
":  c #004411",
">  c #004D14",
",  c #005215",
"<  c #005916",
"1  c #005D18",
"2  c #006401",
"3  c #006C01",
"4  c #00640F",
"5  c #006D0F",
"6  c #007304",
"7  c #007708",
"8  c #007B0D",
"9  c #006017",
"0  c #006D10",
"q  c #00631A",
"w  c #006D1C",
"e  c #007311",
"r  c #007E11",
"t  c #00731E",
"y  c #007C1C",
"u  c #007720",
"i  c #007C21",
"p  c #008207",
"a  c #008314",
"s  c #008C17",
"d  c #008519",
"f  c #008B1A",
"g  c #008A1B",
"h  c #008B1B",
"j  c #008A1A",
"k  c #008919",
"l  c #008C1A",
"z  c #008C1B",
"x  c #008E1B",
"c  c #008F1B",
"v  c #008B1C",
"b  c #008C1C",
"n  c #008D1C",
"m  c #008D1D",
"M  c #008E1D",
"N  c #008F1D",
"B  c #008C1E",
"V  c #008D1E",
"C  c #008E1E",
"Z  c #008F1E",
"A  c #008E1F",
"S  c #008F1F",
"D  c #008C1C",
"F  c #00921C",
"G  c #00931D",
"H  c #00901E",
"J  c #00901F",
"K  c #00921E",
"L  c #00921F",
"P  c #00961D",
"I  c #00901F",
"U  c #00981E",
"Y  c #008422",
"T  c #008F22",
"R  c #008D24",
"E  c #009020",
"W  c #009120",
"Q  c #009021",
"!  c #009121",
"~  c #009221",
"^  c #009022",
"/  c #009122",
"(  c #009222",
")  c #009322",
"_  c #009223",
"`  c #009323",
"'  c #009423",
"]  c #009523",
"[  c #009623",
"{  c #009723",
"}  c #009325",
"|  c #009026",
" . c #009424",
".. c #009524",
"X. c #009525",
"o. c #009624",
"O. c #009724",
"+. c #009625",
"@. c #009725",
"#. c #009527",
"$. c #009626",
"%. c #009726",
"&. c #009727",
"*. c #009524",
"=. c #009B22",
"-. c #009824",
";. c #009825",
":. c #009925",
">. c #009B24",
",. c #009826",
"<. c #009926",
"1. c #009827",
"2. c #009927",
"3. c #009C24",
"4. c #009D26",
"5. c #009E26",
"6. c #009926",
"7. c #009728",
"8. c #009728",
"9. c #009828",
"0. c #009928",
"q. c #009829",
"w. c #009929",
"e. c #009A28",
"r. c #009B28",
"t. c #009B29",
"y. c #009B2A",
"u. c #009D28",
"i. c #009C29",
"p. c #009D29",
"a. c #009F29",
"s. c #009C2A",
"d. c #009E2A",
"f. c #009F2B",
"g. c #009B29",
"h. c #00A026",
"j. c #00A228",
"k. c #00A12B",
"l. c #00A22A",
"z. c #00A32A",
"x. c #00A72B",
"c. c #00A52C",
"v. c #00A62C",
"b. c #00A42C",
"n. c #00A92B",
"m. c #00AB2E",
"M. c #00AB2D",
"N. c #00B02E",
"B. c None",
"V. c black",
/* pixels */
"2 2 B.2 2 3 3 3 3 3 B.3 3 3 3 3 3 3 3 B.3 3 3 3 3 3 3 B.3 3 3 3 3 3 3 3 B.3 3 3 3 3 3 3 3 3 3 3 3 B.3 3 3 3 3 6 3 B.3 3 3 3 3 3 ",
"2 3 B.3 3 3 3 3 3 3 B.3 3 3 3 3 3 3 3 B.3 3 3 3 3 3 3 B.3 3 3 3 3 3 3 3 B.3 3 3 3 3 3 3 3 3 3 3 3 B.6 6 6 6 6 6 6 6 6 6 6 6 6 3 ",
"3 3 B.3 3 3 3 6 3 6 B.. X X X X X X . . X X X X X X X   X X X X X X X . . X X X X X X X X X X X X   O 6 6 6 8 6 6 B.6 7 6 6 6 6 ",
"3 3 6 6 6 6 B.B.6 p #                                                                               . 8 8 B.B.8 r r 8 8 8 8 B.8 ",
"3 6 6 6 6 7 B.8 8 8 ; o X                                                                           X r a 8 a r a a r r r r B.8 ",
"6 6 7 8 8 r B.r r a a a a e - .                   - e 5 0 0 0 0 B.0 0 0 0 4 ; - O O o               X a d d d d d d d d d d B.a ",
"B.B.B.B.B.r B.B.a B.B.B.B.B.B.B.X               . B.B.B.B.B.s B.B.B.B.B.B.B.B.B.B.B.r B.              B.B.B.B.B.B.B.B.B.B.B.B.B.",
"8 B.B.a d d d k k l B.k l l k F d .             . d l B.l l C l k C l B.B.k k C k C l U P -           y F l C C C B.C C C C k v ",
"r r a d d k k k C C B.C C C C C F $             o C F B.C C C C C C C C B.C C F C F C C C =.<         y F C ! ! ! C C ! ! F C C ",
"a d B.k k C C C ! ! B.! ! ! ! ! 3.*             o T ! B.! ! ! ! ! ! ! ! B.! ! ! ! ! ! ! ! ! 1.$       y ' ! ' ' ' B.! ' ' ' ! ! ",
"a B.B.l C C B.B.! ' B.B.' ' B.B.B.%             . T 1.B.B.o.' B.B.' o.B.B.' ' ' B.B.' ' o.B.B.t       9 h.B.B.' ' B.B.o.o.B.B.o.",
"d k C C ! ! B.o.o.o.o.o.o.1.1.B.j.<             o o.1.o.o.o.o.o.B.1.o.o.o.o.o.o.B.o.o.o.1.B.o.3.@     w 3.' 1.o.o.1.1.1.o.o.B.1.",
"k C C ! ! o.B.o.o.o.1.1.0.0.1.B.j.1             o o.0.1.0.1.0.1.B.1.1.0.1.1.1.1.B.1.1.1.1.B.o.j.1     w s.o.0.1.0.0.0.0.1.1.B.1.",
"k C ! ! ' o.B.B.o.1.1.1.1.1.1.B.n.>             . } 0.1.1.1.1.B.B.1.0.0.1.0.1.1.B.B.0.1.1.B.o.j.q     > b.B.B.0.1.1.1.1.1.B.B.1.",
"C B.B.' o.o.o.1.1.1.B.0.0.0.0.7.m.>             . o.s.B.0.0.0.0.0.0.0.B.B.s.0.0.0.0.0.0.0.0.0.s.} $ < i j.0.0.0.0.B.0.0.0.0.0.0.",
"C ! ' o.o.o.1.0.1.0.B.0.s.s.s.0.c.q             o 0.s.B.s.s.s.s.s.s.s.s.B.s.0.0.0.s.s.s.s.s.s.0.s.B.c.s.0.s.s.s.s.0.0.s.s.s.s.s.",
"! ! B.o.1.1.0.1.0.0.B.0.s.s.0.0.c.1             o 0.s.B.0.0.0.0.0.0.0.0.B.0.0.0.0.0.0.0.s.0.s.s.s.B.0.s.s.0.0.0.0.B.s.s.0.0.0.0.",
"! B.B.B.B.1.B.B.0.B.B.B.B.B.B.B.B.:             . o.B.B.B.B.B.B.B.B.0.B.B.s.s.j.B.B.0.0.B.B.B.B.B.B.B.0.0.B.B.0.0.B.B.B.B.B.B.B.",
"' o.o.1.0.0.B.0.s.0.s.s.0.0.0.B.c.1             o 0.s.0.s.0.s.0.B.0.0.0.s.} @ + B.m.0.0.s.B.0.0.s.s.0.0.0.0.s.s.0.0.0.0.0.s.B.s.",
"' o.1.1.0.0.B.0.s.s.s.s.s.s.s.B.c.q             o 0.s.0.s.s.s.0.B.s.s.0.j.Y     o m.0.s.s.B.0.s.0.s.0.0.s.0.0.s.s.s.0.0.s.0.B.0.",
"' o.1.1.1.1.B.B.0.0.0.0.0.0.0.B.m.>             X o.s.0.0.0.0.B.B.0.0.0.c.q     B.B.0.0.0.B.0.s.s.s.s.s.s.B.B.s.s.s.s.s.s.s.B.s.",
"o.B.B.1.0.0.0.0.0.0.B.0.0.0.0.o.m.>             . o.s.B.0.0.0.0.0.0.0.B.B.@     : m.o.0.0.s.0.0.0.B.0.0.0.0.0.0.0.B.B.0.0.0.0.0.",
"o.1.o.1.0.s.s.s.s.s.B.s.s.s.s.0.c.q             o 0.s.B.s.s.s.s.0.0.0.m.B.o     1 c.0.s.s.s.s.s.0.B.0.s.s.s.s.s.s.0.0.s.s.s.s.s.",
"o.0.B.0.0.0.s.s.s.0.B.0.s.0.0.0.c.1             o 7.s.B.s.0.0.0.0.s.m.i         < c.0.0.s.0.0.0.0.B.0.0.0.0.0.s.0.B.0.s.0.0.0.0.",
"o.B.B.1.0.1.B.B.1.0.B.B.1.1.B.B.B.:             . o.B.B.B.j.b.B.B.R > .         $ B.o.0.B.B.B.0.B.B.B.B.0.B.B.0.0.B.B.0.0.B.B.0.",
"o.1.0.s.0.0.B.0.s.s.0.0.0.0.s.B.c.1             o 7.0.0.0.R i < . .             B.m.0.0.0.B.0.s.s.0.s.0.s.B.0.0.0.0.0.0.0.0.B.0.",
"o.1.s.0.s.s.B.0.s.s.s.s.s.s.s.B.c.q               o o o o .                     o m.0.s.s.B.0.s.s.s.s.0.s.0.s.s.0.0.s.0.s.s.B.0.",
"1.1.s.0.s.s.B.B.s.0.0.0.0.0.s.B.m.,                                             B.N.0.s.0.B.0.0.0.s.0.0.s.B.B.s.s.s.s.s.s.s.B.s.",
"1.B.B.0.0.0.0.0.0.0.B.B.0.0.0.7.m.>               .                             : m.o.0.0.s.s.s.1.B.s.0.0.0.0.0.0.B.B.s.s.s.s.s.",
"1.0.B.s.s.0.0.0.0.0.B.0.0.0.0.0.c.q             o R R B.i t 1 : +               1 c.0.0.s.s.s.s.s.B.s.s.0.0.0.0.0.0.0.s.s.s.s.s.",
"1.0.B.s.0.0.0.0.0.0.B.0.s.0.0.0.c.1             o 0.j.B.j.j.c.c.s.Y :           < c.0.s.0.0.0.0.0.B.s.s.0.s.0.0.0.B.0.0.0.0.0.0.",
"B.B.B.B.B.B.B.B.B.B.B.B.B.B.B.B.B.&             . B.B.B.B.B.B.B.B.B.B.B.        $ B.B.B.B.B.B.B.B.B.B.B.B.B.B.B.B.B.B.B.B.B.B.B.",
"1.0.s.0.0.s.B.0.s.0.0.s.0.0.s.B.c.1             o 7.s.0.0.0.s.0.B.0.7.m.t       B.m.0.0.0.B.0.s.s.0.s.0.s.B.0.s.0.s.s.0.s.0.B.0.",
"1.0.s.0.s.s.B.0.s.0.s.s.s.0.s.B.c.q             o 0.s.0.s.0.s.0.B.s.s.0.c.&     o m.0.s.0.B.0.0.s.0.0.0.s.0.0.0.0.0.0.0.0.0.B.0.",
"1.0.s.0.0.s.B.B.s.0.s.0.0.0.0.B.m.,             X 7.s.0.0.0.0.0.B.0.0.0.c.1     B.N.0.0.0.B.0.s.s.s.s.s.s.B.B.s.s.s.s.s.s.0.B.s.",
"B.B.B.B.B.B.B.B.B.B.B.B.B.B.B.B.B.%             . B.B.B.B.B.B.B.B.B.B.B.B.q     $ B.B.B.B.B.B.B.B.B.B.B.B.B.B.B.B.B.B.B.B.B.B.B.",
"1.0.B.0.s.s.s.s.s.0.B.0.s.s.s.0.c.q             o 0.s.B.s.s.s.s.s.s.s.0.B.R     1 c.0.s.0.s.s.0.0.B.0.0.0.0.0.0.s.0.0.s.0.0.s.0.",
"1.0.B.0.0.0.0.0.0.0.B.0.0.0.0.0.c.q             o 0.s.B.s.0.s.s.s.s.s.0.B.0.Y Y } s.0.s.0.s.0.0.0.B.0.s.s.s.s.s.s.0.0.s.0.0.s.s.",
"1.B.B.0.B.B.B.B.B.B.B.B.0.B.B.B.B.:             . } B.B.B.0.B.B.B.B.0.B.B.0.B.B.B.B.B.B.B.B.B.B.B.B.B.B.B.B.B.B.s.B.B.s.B.B.B.B.",
"1.0.s.0.s.s.B.B.s.0.s.s.s.s.s.B.m.,             X o.s.0.0.0.s.0.B.0.0.s.s.0.0.0.B.0.s.s.0.B.0.s.0.0.s.0.0.B.B.s.s.0.s.s.s.0.B.s.",
"1.0.s.0.0.s.B.s.s.0.s.0.s.0.s.B.c.q             o 0.s.0.s.0.s.s.B.s.s.s.0.s.s.s.B.0.s.s.s.B.0.s.s.s.0.s.j.j.s.0.s.s.s.0.s.0.B.0.",
"1.0.s.0.0.0.B.s.0.0.0.0.s.0.0.B.c.<             o 7.s.0.0.0.s.s.B.0.0.0.s.0.0.0.B.0.0.0.0.B.0.s.0.0.s.R Y t o.s.0.0.0.0.s.s.B.s.",
"B.B.B.B.B.B.B.B.B.B.B.B.B.B.B.B.B.@               B.B.B.B.B.B.B.B.B.B.B.B.B.B.B.B.B.B.B.B.B.B.B.B.B.B.X     B.B.B.B.B.B.B.B.B.B.",
"1.0.B.0.s.s.0.0.s.s.B.0.s.s.s.0.c.1             o 0.s.B.s.s.s.s.0.0.s.0.B.s.s.s.s.s.s.s.0.0.0.0.0.B.} .   . o.s.s.B.0.0.0.0.0.0.",
"1.0.0.0.s.s.s.s.s.0.B.0.s.s.s.0.c.q             o 0.s.B.s.s.s.s.s.s.s.0.B.0.0.0.0.0.s.0.s.s.s.s.0.B.w     o 0.s.s.0.s.s.s.s.s.s.",
"1.0.B.0.0.0.0.0.s.0.B.0.0.0.0.o.m.>             . o.s.B.0.0.0.0.0.0.0.B.B.s.s.s.s.s.s.s.0.0.0.0.o.B.@     o 0.0.0.B.B.0.0.0.0.0.",
"1.3.s.0.0.0.B.B.s.s.s.0.0.0.B.B.m.:               Y j.0.0.0.0.B.B.0.0.0.0.s.s.s.B.B.s.0.0.B.0.1.b.y         B.0.0.0.0.0.0.B.B.0.",
"1.0.0.s.0.s.B.0.s.0.0.s.s.0.s.B.c.,               t j.0.0.0.s.0.B.s.s.s.s.0.0.s.B.0.s.s.s.B.s.0.b.:       . b.0.0.s.s.s.s.0.B.s.",
"o.1.1.0.s.s.B.0.s.s.s.s.s.s.0.B.j.%               : m.0.s.s.s.0.B.s.0.0.0.0.0.0.B.0.0.0.0.B.7.m.w         . m.0.0.0.0.s.s.s.B.0.",
"B.B.B.B.B.B.B.B.B.B.B.B.B.B.B.B.B..                 B.B.B.B.B.B.B.B.B.B.B.B.B.B.B.B.B.B.B.B.B.,           o B.B.B.B.B.B.B.B.B.B.",
"! ' B.o.1.0.0.0.s.0.B.0.0.0.0.m.q                   . B.m.j.s.s.0.0.0.B.B.0.0.0.0.s.s.j.m.} :             < m.0.s.B.0.0.0.0.0.0.",
"C C ! o.o.o.1.0.0.s.B.b.b.c.j.u X                       : t } s.j.j.c.m.B.c.c.c.s.0.} u , o               q c.0.s.0.0.s.s.s.s.s.",
"k C B.! o.o.o.1.0.0.B.w q < @                               . + @ % : $ @ > : & @ o .                     q c.0.s.B.s.0.0.0.0.s.",
"a d k C B.! B.B.3.Y                                                                                     . B.B.1.s.s.s.s.s.B.B.s.",
"r a d k C C B.' 1.T                                                                                       w j.0.s.0.0.0.s.0.B.0.",
"7 8 r a d k B.C ! ! , > > > > @ , > , , > > , @ : , > , > > , : @ , > , , > > , @ : , > > @ > , > , > > < R s.0.s.0.s.0.s.0.B.0.",
"B.B.B.B.B.B.B.B.B.B.B.B.B.B.B.B.B.B.B.B.B.B.B.B.B.B.B.B.B.B.B.B.B.B.B.B.B.B.B.B.B.B.B.B.B.B.B.B.B.B.B.B.B.B.B.B.B.B.B.B.B.B.B.B.",
"3 6 B.6 8 r a k k C B.T ! ! } o.o.o.o.B.0.0.0.0.0.0.7.B.0.0.0.0.0.0.0.B.B.0.0.0.0.0.0.0.0.0.0.0.o.B.0.0.0.0.0.0.0.B.0.0.0.0.0.0.",
"3 3 3 6 6 7 r a d k B.C F ! ' o.o.1.1.B.0.0.0.0.0.s.0.B.s.0.0.0.0.0.s.0.B.s.0.0.0.0.0.0.s.s.s.s.s.B.s.s.s.s.s.s.s.s.0.s.s.0.0.0.",
"2 2 B.3 6 6 6 8 r a B.k C C ! ! o.o.1.B.0.0.0.s.s.s.0.B.0.s.s.s.s.s.s.B.B.s.s.s.s.s.s.0.0.0.0.0.0.B.0.0.0.0.0.0.0.B.0.0.0.0.1.1.",
"2 2 2 2 2 3 B.B.6 8 B.a d d B.B.C ! ! B.o.' 1.B.B.1.0.B.0.0.0.B.B.0.0.0.B.0.0.0.B.B.0.0.1.B.B.0.0.B.0.0.0.B.B.s.s.s.0.0.1.B.B.o.",
"= 2 2 2 2 3 B.3 6 6 8 r a a d B.l C ! ! ! o.o.B.1.1.0.0.0.0.0.0.B.s.0.s.s.s.s.s.B.0.s.s.0.B.s.s.s.s.s.s.s.0.0.0.0.0.0.0.1.o.B.! ",
"= = = 2 2 2 B.3 3 3 6 6 8 8 r B.d d k C C C ! B.o.o.o.o.1.1.1.1.B.0.0.0.0.0.0.0.B.0.0.0.0.B.0.0.0.0.0.0.0.0.0.1.1.1.o.o.' ! B.C ",
"B.B.B.B.B.2 B.B.2 B.B.B.B.B.B.B.B.B.B.B.B.B.B.B.B.B.B.B.B.B.B.B.B.1.B.B.B.B.B.1.B.B.1.B.B.B.B.1.B.B.B.B.1.B.B.B.B.B.B.B.! B.B.B."
};
