/* XPM */
static const char *NORT_WALL[] = {
/* columns rows colors chars-per-pixel */
"64 64 152 2 ",
"   c #000000",
".  c #0C0502",
"X  c #120701",
"o  c #140903",
"O  c #1B0D05",
"+  c #210F06",
"@  c #280F02",
"#  c #231007",
"$  c #2A1206",
"%  c #251208",
"&  c #2B1509",
"*  c #321404",
"=  c #3E1703",
"-  c #31170A",
";  c #35190C",
":  c #3C1C0D",
">  c #4A1D06",
",  c #421F0E",
"<  c #45200F",
"1  c #4F210A",
"2  c #5E2100",
"3  c #51240D",
"4  c #462210",
"5  c #4B2411",
"6  c #522713",
"7  c #552913",
"8  c #5C2C14",
"9  c #652504",
"0  c #672806",
"q  c #692906",
"w  c #63290A",
"e  c #6C2C0A",
"r  c #712F0D",
"t  c #72310E",
"y  c #79310C",
"u  c #622D14",
"i  c #6A2F10",
"p  c #653117",
"a  c #6F3215",
"s  c #673218",
"d  c #6D3419",
"f  c #763312",
"g  c #753311",
"h  c #743413",
"j  c #763412",
"k  c #763413",
"l  c #753515",
"z  c #773414",
"x  c #763514",
"c  c #773514",
"v  c #743311",
"b  c #783513",
"n  c #783515",
"m  c #793614",
"M  c #7B3714",
"N  c #7B3715",
"B  c #793716",
"V  c #7A3716",
"C  c #7B3716",
"Z  c #7A3717",
"A  c #7B3717",
"S  c #7C3716",
"D  c #7A3615",
"F  c #7B3816",
"G  c #7B3817",
"H  c #7C3816",
"J  c #7C3916",
"K  c #7C3817",
"L  c #7D3817",
"P  c #7C3917",
"I  c #7D3917",
"U  c #7E3917",
"Y  c #7D3917",
"T  c #74371A",
"R  c #72371A",
"E  c #76391C",
"W  c #7E3918",
"Q  c #7E3A18",
"!  c #7F3A18",
"~  c #7E3A19",
"^  c #7F3A19",
"/  c #7F3B19",
"(  c #7E3A1A",
")  c #7F3B1A",
"_  c #7D3B1C",
"`  c #863A13",
"'  c #803A18",
"]  c #803B19",
"[  c #823B19",
"{  c #803B1A",
"}  c #813B1A",
"|  c #803C1A",
" . c #813C1A",
".. c #803C1B",
"X. c #813C1B",
"o. c #823D1A",
"O. c #833D1A",
"+. c #823C1B",
"@. c #823D1B",
"#. c #833D1B",
"$. c #833E1A",
"%. c #833E1B",
"&. c #843D19",
"*. c #843E1B",
"=. c #853E1B",
"-. c #823C1C",
";. c #823D1C",
":. c #833D1C",
">. c #833E1C",
",. c #833E1D",
"<. c #843E1C",
"1. c #853E1C",
"2. c #843F1C",
"3. c #843E1D",
"4. c #853E1D",
"5. c #843F1D",
"6. c #853F1D",
"7. c #863F1D",
"8. c #853F1E",
"9. c #863F1E",
"0. c #843E1C",
"q. c #893E19",
"w. c #883F1C",
"e. c #85401D",
"r. c #86401D",
"t. c #85401E",
"y. c #86401E",
"u. c #87401E",
"i. c #87401F",
"p. c #86411F",
"a. c #87411F",
"s. c #86411F",
"d. c #8E4018",
"f. c #8B411D",
"g. c #8B411E",
"h. c #8B421E",
"j. c #8B431F",
"k. c #8D421F",
"l. c #8F441F",
"z. c #88411F",
"x. c #92451E",
"c. c #874120",
"v. c #8B4320",
"b. c #8C4320",
"n. c #8F4420",
"m. c #894220",
"M. c #914622",
"N. c #984722",
"B. c #954823",
"V. c #984923",
"C. c None",
"Z. c black",
/* pixels */
"9 9 C.9 9 9 9 9 9 9 C.9 9 9 9 9 9 9 9 C.9 9 9 9 9 9 9 C.9 9 9 9 9 9 9 9 C.9 9 9 9 9 9 9 9 9 9 9 9 C.0 q q q q q q C.q q q 9 9 9 ",
"9 9 C.9 9 9 9 9 9 9 C.9 9 9 9 9 9 9 q C.0 9 9 q 0 9 9 C.q q 9 q 9 q q 0 C.0 q q q q 9 0 0 0 0 0 0 C.q q q q q q q 0 0 q q q q q ",
"9 9 C.q = . X X X X   . X X X X X X + C.q q q q q q q C.q q q q q q q C.C.q q q e 0 o X X X X X X   X X X X X X X . X . * r q q ",
"9 0 9 r @                             * y q e C.C.e e e e e e C.C.e e e e e e e C.C.                                    o C.C.e ",
"q q q r > .                           . w t e C.r r r e e r r r C.r r r r r r r C.e + o .                           X X : f C.r ",
"q e e e r e w 1 : .                     o v f C.f f f f f f f f C.f f f f f f f C.k f f v C.;                 # 3 i f k k k C.v ",
"C.C.C.C.C.t C.C.` C.                      $ C.C.C.C.C.C.C.C.z C.C.C.C.C.C.C.C.C.C.C.C.C.C.C.C.O             . C.C.C.C.C.C.C.C.C.",
"r C.C.v f z k z k d.#                       : q.m I I C.I I I I F I I C.C.m I I I I m I I F ~ z .         X m { m C.I ~ ~ ~ S I ",
"t v f k m m m I I { C.                      . a X.~ ~ C.~ ~ { ~ ~ ~ ~ ~ C.~ ~ { ~ ~ ~ ~ ~ { ~ =.-         : w.~ X.{ { { ~ ~ ~ ~ ",
"f f C.m F I ~ ~ ~ { C..                       O >.>.X.C.X.>.>.>.X.X.>.>.C.X.X.>.>.X.X.X.X.X.X.h.<         6 h.X.>.C.>.X.X.X.X.X.",
"f C.C.S I ~ C.C.X.X.C.o                         # x.X.C.C.<.X.C.C.X.<.C.C.X.X.X.C.C.X.X.=.C.C.C.,         , C.>.<.C.C.=.<.C.C.X.",
"b m I ~ { X.C.X.<.>.h.;                           7 l.<.y.<.<.<.C.<.<.<.<.<.y.y.C.<.y.y.y.C.>.h.u       . 8 k.<.<.y.y.y.<.<.C.y.",
"m I ~ X.X.X.C.<.y.<.n.:       .                   . T m.y.y.y.y.C.y.y.y.y.y.y.y.C.y.y.y.y.C.y.b.s       . d h.y.y.y.y.y.y.y.C.y.",
"m ~ { X.X.=.C.C.<.<.N.&       O &                   O y.h.<.h.C.C.y.y.y.y.y.y.y.C.C.y.y.y.C.<.M.8       . C.C.y.h.y.y.y.y.C.C.y.",
"~ C.C.>.<.<.<.y.y.>.C.&       % B.#                     B.c.m.m.m.m.m.C.C.m.m.m.m.m.m.m.m.m.c.M.p         E b.m.m.C.m.m.m.m.m.m.",
"~ X.X.<.<.<.y.y.c.y.C.:       - M._ X                   8 M.c.m.m.m.m.m.C.m.m.m.m.m.m.m.m.m.m.n.R         _ v.m.m.m.m.m.m.m.m.m.",
"{ X.C.<.y.y.y.y.m.y.C.;       - n.n.u                     E n.c.m.m.m.m.C.m.m.m.m.m.m.m.m.m.c.n.R         _ n.m.m.C.m.m.c.c.m.m.",
"{ C.C.C.C.y.C.C.y.C.C.%       O C.>.C.#                   X y.C.C.C.y.C.C.y.y.y.C.C.y.y.C.C.C.C.8         C.C.y.y.C.C.C.C.C.C.C.",
"X.<.<.y.y.y.C.m.m.c.B.,       # n.c.m.n.&                   : B.C.m.m.m.m.m.m.m.C.m.m.m.m.C.c.n.R       . T b.m.m.m.m.m.m.m.C.m.",
"X.<.y.y.y.c.C.m.m.c.M.4       $ n.m.c.v.>.o                   5 C.c.m.m.m.m.m.m.C.m.m.m.m.C.m.n.R       . E b.m.m.m.m.m.m.m.C.m.",
"=.<.<.y.h.c.C.C.m.y.V.;       O M.c.m.y.M.8                     C.n.y.m.m.m.m.m.C.h.m.m.h.C.y.n.p       . C.C.h.h.h.h.h.h.h.C.h.",
"<.C.C.y.y.h.h.h.h.t.C.$       # M.y.C.C.y.V.,                   . y.h.C.C.h.h.h.h.h.h.h.m.m.c.n.p         E b.c.m.C.C.m.m.m.m.m.",
"<.y.y.c.m.m.m.m.m.y.C.:       ; n.m.m.C.m.m.n.&                   : n.y.C.m.m.m.m.m.m.m.m.m.m.n.R         _ v.m.m.m.m.m.m.m.m.m.",
"<.y.C.c.m.m.m.m.m.y.C.;       - n.m.m.C.m.m.v.>.o                   8 V.C.m.m.m.m.m.m.m.m.m.c.n.R         _ v.c.m.C.m.m.m.m.m.m.",
"<.C.C.h.h.h.C.C.h.>.C.%       O C.y.C.C.y.C.<.C.6                     C.C.y.h.h.C.C.h.h.C.C.C.C.8         C.C.y.y.C.C.y.y.C.C.y.",
"<.y.m.m.m.m.C.m.m.c.B.,       # n.c.m.m.m.m.m.C.B.6                   O c.m.m.m.C.m.m.m.m.C.c.n.d       . R b.m.m.m.c.m.m.m.C.m.",
"<.c.m.m.m.m.C.m.m.c.M.4       $ n.m.m.m.m.m.m.C.c.n.;                   : M.c.m.C.m.m.m.m.C.m.n.R       . E b.m.m.m.m.m.m.m.C.m.",
"<.h.h.h.h.h.C.C.h.y.V.;       O M.c.m.m.m.m.m.C.y.m.>..                   7 B.y.C.h.m.m.h.C.y.n.s       . C.C.h.h.h.h.h.h.h.C.h.",
"y.C.C.y.y.y.y.y.y.t.C.%       # M.y.C.C.c.c.c.c.m.y.M.C.                    p M.y.y.y.y.h.h.y.M.p         T n.y.y.C.C.h.h.h.h.h.",
"y.h.C.m.m.m.m.m.m.y.C.:       ; n.c.m.C.m.m.m.m.m.m.c.C.5                   # m.m.m.m.m.m.m.m.n.R         _ v.m.m.m.h.m.m.m.m.m.",
"y.m.C.m.m.m.m.m.m.y.C.:       - n.c.h.C.m.m.m.m.m.m.m.C.n.;                   : M.c.m.m.m.m.c.n.R         _ m.m.m.C.m.m.m.m.m.m.",
"C.C.C.C.C.C.C.C.C.C.C.+       O C.C.C.C.C.C.C.C.C.C.C.C.C.C.                    : C.C.C.C.C.C.C.7         C.C.C.C.C.C.C.C.C.C.C.",
"y.m.m.m.m.m.C.m.m.y.B.:       # n.c.m.m.m.m.m.C.m.m.m.m.c.n.R                     d n.c.m.C.y.n.d       . C.n.m.m.m.m.m.m.m.C.m.",
"y.m.m.m.m.m.C.m.m.c.M.4       & n.m.m.m.m.m.m.C.m.m.m.m.m.c.M.7                   + m.m.m.C.m.n.T       . E b.m.m.m.m.m.m.m.C.m.",
"y.m.m.m.m.m.C.C.m.y.V.:       O M.c.m.m.m.m.m.C.m.m.m.m.m.m.c.B.                    ; M.y.C.y.n.s       . C.C.m.m.m.m.m.m.m.C.m.",
"C.C.C.C.C.C.C.C.C.C.C.O       O C.C.C.C.C.C.C.C.C.C.C.C.C.C.C.C.C.o                   - C.C.C.C.C.        C.C.C.C.C.C.C.C.C.C.C.",
"y.y.C.m.m.m.m.m.m.y.C.:       - n.c.m.C.m.m.m.m.m.m.m.C.m.m.m.c.n.T                   . E n.c.n.R         _ v.m.m.m.m.m.m.m.m.m.",
"y.m.C.m.m.m.m.m.m.y.C.:       ; n.m.m.C.m.m.m.m.m.m.m.C.m.m.m.m.c.M.8                   O m.m.n.R         _ v.m.m.m.m.m.m.m.m.m.",
"y.C.C.m.C.C.C.C.C.>.C.#       O C.y.C.C.m.C.C.C.C.m.C.C.C.m.C.C.C.y.C.O                   & C.C.8         T C.C.h.C.C.h.C.C.C.C.",
"y.m.m.m.m.m.C.C.m.y.B.:       O M.y.m.m.m.m.h.C.c.m.m.m.m.m.m.m.C.c.m.m.O                   5 V.s       . C.C.m.m.m.m.m.m.m.C.m.",
"y.m.m.m.m.m.C.c.m.c.M.4       $ n.m.m.m.m.m.m.C.m.m.m.m.m.m.m.c.C.m.c.n.E .                 . E E       . E b.m.m.m.m.m.m.m.C.m.",
"y.m.m.m.m.c.C.c.m.c.B.:       # n.c.m.m.m.m.m.C.m.m.m.m.m.c.m.m.C.m.m.c.M.7                   + d       . C.b.m.m.m.m.m.m.m.C.m.",
"C.C.C.C.C.C.C.C.C.C.C.O       X C.C.C.C.C.C.C.C.C.C.C.C.C.C.C.C.C.C.C.C.C.C.O                             C.C.C.C.C.C.C.C.C.C.C.",
"y.m.C.m.m.m.m.m.m.y.C.;       & n.m.h.C.m.m.m.m.m.m.m.C.m.m.m.m.m.m.m.m.C.m.m.+                           _ v.m.m.C.m.m.m.m.m.m.",
"y.m.h.m.m.m.m.m.m.y.C.;       & n.m.m.C.m.m.m.m.m.m.m.C.m.m.m.m.m.m.m.m.C.c.n.E X                         _ v.m.m.m.m.m.m.m.m.m.",
"y.m.C.h.h.h.h.h.h.y.C.#       O n.y.C.C.m.m.m.m.m.m.m.C.h.h.h.h.h.h.h.C.C.m.<.B.6                         E n.y.h.C.C.h.h.h.h.h.",
"y.y.h.h.h.h.C.C.h.y.B.#       . m.m.c.m.m.m.m.C.C.h.h.h.h.h.h.C.C.h.h.h.h.h.h.y.C.&                     . C.C.h.h.h.h.h.h.C.C.h.",
"<.y.m.m.m.m.C.m.m.m.v.&       o c.m.m.m.m.m.m.C.m.m.m.m.m.m.m.m.C.m.m.m.m.m.m.m.C.n.&                   . E b.m.m.m.m.m.m.m.C.m.",
"<.y.y.m.m.m.C.h.m.m.y.o         _ m.m.m.m.m.m.C.m.m.m.m.m.m.m.m.C.c.m.m.m.m.m.m.C.n._ .                 . T b.m.m.c.c.m.m.m.C.m.",
"C.C.C.C.C.C.C.C.C.C.C.          < C.C.C.C.C.C.C.C.C.C.C.C.C.C.C.C.C.C.C.C.C.C.C.C.C.C.,                   C.C.C.C.C.C.C.C.C.C.C.",
"{ X.C.<.<.<.c.c.m.B.O           & M.y.C.c.c.m.m.m.m.m.C.m.m.m.m.m.m.m.C.C.m.m.m.m.m.c.M.4                 _ m.m.c.C.m.m.m.m.m.m.",
"I ~ { >.h.k.M.n.m.5               7 M.C.n.n.v.m.m.m.m.C.m.m.m.m.m.m.m.m.C.m.m.m.m.m.m.m.n.&               _ v.m.c.m.m.m.m.m.m.m.",
"m I C.~ u 7 5 : o                   O ; 8 p E m.m.m.m.C.m.m.m.m.m.m.m.C.C.m.m.m.m.m.m.c.n.E               E b.c.m.C.h.m.m.m.m.m.",
"v f C.7                                     & C.C.h.h.h.y.C.y.C.C.y.y.h.h.h.h.h.C.C.h.h.>.C.8           . C.C.y.h.h.h.h.h.C.C.h.",
"t v b u                                     , C.y.m.m.m.m.m.m.m.C.m.m.m.m.m.m.m.C.m.m.m.m.C.M.5         . E b.m.m.m.m.m.m.m.C.m.",
"e e t i : , # - , , < < < < , % 4 4 4 4 4 , s C.c.m.m.m.m.m.m.m.C.m.c.c.m.m.m.m.C.m.m.m.m.C.m.n.-       o T b.m.m.m.m.m.m.m.C.m.",
"C.C.C.C.C.C.C.C.C.C.C.C.C.C.C.C.C.C.C.C.C.C.C.C.C.C.C.C.C.C.C.C.C.C.C.C.C.C.C.C.C.C.C.C.C.C.C.C.C.C.C.C.C.C.C.C.C.C.C.C.C.C.C.C.",
"9 q C.q e e v z z m C.~ ~ X.>.>.<.<.>.C.y.y.c.m.m.m.m.C.m.m.m.m.m.m.m.C.C.m.m.m.m.m.m.m.m.m.m.m.m.C.M.M.M.m.m.m.m.C.m.m.m.m.m.m.",
"9 9 0 q q e r f k m C.~ ~ X.>.<.<.y.y.C.m.m.m.m.m.m.m.C.m.m.m.m.m.m.m.m.C.m.m.m.m.m.m.m.m.m.m.m.y.C.c.c.c.m.m.m.m.m.m.m.m.m.m.y.",
"9 9 C.9 q q e e t f C.m I ~ X.X.>.<.<.C.y.y.m.m.m.m.m.C.m.m.m.m.m.m.m.C.C.m.m.m.m.m.m.m.m.m.m.m.h.C.m.m.m.m.m.h.m.C.h.m.m.c.y.y.",
"2 9 9 9 9 9 C.C.e e C.f f m C.C.~ { X.C.<.<.<.C.C.y.y.C.h.h.h.C.C.h.h.y.C.y.h.y.C.C.h.h.y.C.C.h.y.C.h.h.h.C.C.m.m.m.m.c.y.C.C.<.",
"2 2 9 9 9 9 C.9 q q e t v f k C.I ~ { >.>.>.<.C.y.y.y.c.m.m.m.m.C.m.m.m.m.m.m.m.C.m.m.m.m.C.m.m.m.m.m.m.m.m.m.m.m.m.h.y.y.<.C.>.",
"2 2 2 2 2 9 C.9 9 9 q q e r t C.k m m I ~ ~ X.C.>.<.<.<.y.y.y.y.C.y.c.m.m.m.m.m.C.m.m.m.m.C.m.m.m.m.m.c.y.y.y.y.y.y.y.<.>.X.C.~ ",
"C.C.C.C.C.2 C.C.9 C.C.C.C.C.C.C.C.C.C.C.C.C.C.C.C.C.C.C.C.C.C.C.C.<.C.C.C.C.C.<.C.C.y.C.C.C.C.<.C.C.C.C.<.C.C.C.C.C.C.C.{ C.C.C."
};
