/* XPM */
static const char *SOUTH_WALL[] = {
/* columns rows colors chars-per-pixel */
"64 64 157 2 ",
"   c #000001",
".  c #01050C",
"X  c #010712",
"o  c #020915",
"O  c #020C1C",
"+  c #040F21",
"@  c #041125",
"#  c #05142C",
"$  c #051632",
"%  c #061937",
"&  c #041738",
"*  c #081638",
"=  c #061A3B",
"-  c #081A3C",
";  c #061D42",
":  c #081E42",
">  c #091E4C",
",  c #082046",
"<  c #09234D",
"1  c #072355",
"2  c #0A2652",
"3  c #0B2659",
"4  c #0B2A5C",
"5  c #052A63",
"6  c #0C2D63",
"7  c #0C2B68",
"8  c #0D326D",
"9  c #162E76",
"0  c #182D72",
"q  c #152F78",
"w  c #0D3574",
"e  c #06347B",
"r  c #0B377D",
"t  c #0F397B",
"y  c #13327D",
"u  c #103B7F",
"i  c #0E3585",
"p  c #063885",
"a  c #0D3B84",
"s  c #0D3788",
"d  c #063B8E",
"f  c #0B398C",
"g  c #113482",
"h  c #103D83",
"j  c #10378A",
"k  c #113788",
"l  c #143688",
"z  c #153688",
"x  c #103F88",
"c  c #053D91",
"v  c #073C90",
"b  c #073D91",
"n  c #053C92",
"m  c #053D93",
"M  c #063D92",
"N  c #053E92",
"B  c #053E93",
"V  c #073E92",
"C  c #063E93",
"Z  c #073E93",
"A  c #063E94",
"S  c #063F94",
"D  c #073F94",
"F  c #073E95",
"G  c #073F95",
"H  c #073E93",
"J  c #083B91",
"K  c #0E3B91",
"L  c #083C91",
"P  c #083D91",
"I  c #0A3C90",
"U  c #0A3D91",
"Y  c #093C92",
"T  c #083E92",
"R  c #093E93",
"E  c #0D3F90",
"W  c #083F95",
"Q  c #0C3D96",
"!  c #083D92",
"~  c #0C3F98",
"^  c #11418D",
"/  c #074096",
"(  c #074096",
")  c #084095",
"_  c #094095",
"`  c #084096",
"'  c #094096",
"]  c #084197",
"[  c #0B4096",
"{  c #0A4097",
"}  c #0A4197",
"|  c #094197",
" . c #0A4199",
".. c #08439B",
"X. c #0A439A",
"o. c #0B439B",
"O. c #0C4298",
"+. c #0D4399",
"@. c #0E4399",
"#. c #0D449B",
"$. c #09439D",
"%. c #0A439D",
"&. c #08439F",
"*. c #0B449D",
"=. c #0C449C",
"-. c #0D449C",
";. c #0C449D",
":. c #0D449D",
">. c #0D459D",
",. c #0E459D",
"<. c #0C449E",
"1. c #0C459E",
"2. c #0D459E",
"3. c #0E459E",
"4. c #0F459E",
"5. c #0E459F",
"6. c #0F469E",
"7. c #0F469F",
"8. c #0C449C",
"9. c #124494",
"0. c #10459D",
"q. c #10469E",
"w. c #10469F",
"e. c #10479F",
"r. c #11469F",
"t. c #12479D",
"y. c #14499E",
"u. c #0F46A0",
"i. c #0C47A3",
"p. c #0F47A2",
"a. c #0D47A4",
"s. c #0F45A0",
"d. c #0C4AAC",
"f. c #0C4BAC",
"g. c #1047A0",
"h. c #1147A0",
"j. c #1146A0",
"k. c #1247A0",
"l. c #1147A0",
"z. c #1148A0",
"x. c #1248A0",
"c. c #1248A1",
"v. c #1049A4",
"b. c #134BA5",
"n. c #124CAB",
"m. c #154FAA",
"M. c #184EA9",
"N. c #1650AB",
"B. c #0F4DB1",
"V. c #1653B4",
"C. c #1756BA",
"Z. c #1957BC",
"A. c #1758BD",
"S. c #1858BD",
"D. c #175AC0",
"F. c None",
"G. c black",
/* pixels */
"9 q F.y y y y y y y F.y y y y y y y y F.y y y y y y y F.l l z z z l z g F.y y y y y y y y y y g g F.g g g g g g g F.g g g g g y ",
"y y F.y y y y g g g F.g g i g g g g i F.g g y g g j y F.> : * * - : 3 7 F.j g i g g g g s j i i i F.i i i i i i i i i i i i i g ",
"y y F.g y g g i i g F.i i i i i i i i F.i i j f 7 * X                   X > i K i i s i = ; i i i F.s s s s s s s F.s s s s s i ",
"g i i i i i F.F.f s f f f f f F.s s s s s Q 1 .                               # F.F.~ &     f d f d f d d F.F.d d d d d f f F.s ",
"g i i i s s F.s s d d d d d d F.d d d d I :                                       e p .   . d I d n d n I J n n n n n I I I F.d ",
"i s s d d d F.I I I n n n A I F.n n A A $           o ; 5 e p p F.e 5 & X         . O     . d { A { W { { { { { { { { / / / F.n ",
"F.F.F.F.F.n F.F.A F.F.F.F.F.F.F.F.F.F.$             F.F.F.F.$.F.F.F.F.F.F..                 r F.F.F.F.F.F.F.F.F.F.F.F.F.F.F.F.F.",
"f F.F.A W { {  . .$.F.$.*.:.:.:. .d.=           1 B.s.F.#.:.:.:. .:.#.F.F.d.w .             i a.:.F.:.s.:.:.:.s.h.F.:.:.:.r.:.r.",
"f I A { =.=.=.:.:.:.F.:.r.r.r.r.s.E X         ; n.r.:.F.h.h.c.r.:.h.h.h.F.r.n.a .           a b.r.F.c.c.h.h.c.c.c.c.h.c.c.h.r.r.",
"I / F. .=.r.r.h.h.c.F.c.c.c.c.c.m.;         . 9.b.c.c.F.c.c.c.c.c.c.c.c.F.c.r.m.t           t m.r.F.c.c.c.c.c.b.b.F.c.b.b.b.c.c.",
"W F.F.:.:.s.F.F.c.c.F.F.b.b.F.F.a           @ F.F.b.b.F.F.b.b.F.F.b.b.F.F.b.b.c.F.$         4 F.F.F.b.b.b.F.F.b.b.F.F.b.b.F.F.b.",
"{  .:.r.c.c.F.b.b.b.b.b.b.n.b.F.7           4 F.c.b.b.b.n.b.b.b.F.n.b.b.b.b.b.b.F.c.+       8 V.b.b.b.b.b.b.n.n.b.n.b.m.b.m.F.m.",
"=.:.h.c.c.b.F.b.m.m.m.m.m.m.m.F.-           8 F.m.m.m.m.m.m.m.m.F.m.m.m.m.m.m.m.F.V.8       8 V.m.m.m.m.m.m.m.m.m.m.m.m.m.m.F.m.",
":.r.c.c.b.b.F.F.m.n.m.m.m.m.m.F.o           < F.F.m.m.m.m.m.m.F.F.m.m.m.m.m.m.m.F.F.t.      < Z.b.m.m.m.m.F.F.m.m.m.m.m.m.F.F.m.",
"r.F.F.b.b.b.n.m.m.m.F.m.m.m.N.y.            # C.m.m.n.F.m.m.m.m.m.m.m.F.F.m.m.m.m.m.C.=     , D.b.F.m.m.m.m.m.m.m.F.m.m.m.m.N.m.",
"r.c.c.b.b.b.m.m.m.m.F.m.m.m.N.9.            O m.N.m.m.F.N.m.m.m.m.m.m.m.F.m.m.m.m.m.V.h     2 C.m.F.m.m.m.m.m.m.m.m.m.N.N.N.N.N.",
"y.c.F.n.n.m.m.m.m.m.F.m.N.m.V.9.              6 C.m.m.F.N.m.m.m.N.m.N.m.F.N.m.m.N.m.N.m.t w ^ N.m.F.m.N.m.N.m.N.m.F.m.m.m.m.m.m.",
"c.F.F.F.F.m.F.F.n.F.F.F.F.F.F.F.                w F.c.F.F.F.F.F.F.F.n.F.F.n.n.n.F.F.n.n.F.F.F.F.F.F.F.m.m.F.F.m.n.F.F.F.F.F.F.F.",
"b.b.n.n.m.m.F.m.N.m.N.N.m.m.N.F.o               . ^ C.m.m.N.N.m.F.m.N.N.N.m.N.m.F.m.N.m.m.F.m.N.m.m.m.m.m.m.m.m.m.m.N.m.N.m.F.m.",
"b.b.n.m.m.m.F.m.N.m.m.m.m.m.m.F.%                 . w V.V.m.m.m.F.m.m.m.m.m.m.m.F.N.N.m.m.F.m.m.m.m.m.m.m.m.m.m.m.m.m.m.m.m.F.m.",
"b.n.n.m.M.m.F.F.m.m.m.m.m.m.m.F.-                     % ^ C.N.F.F.m.m.m.m.m.m.m.F.m.m.m.m.F.m.m.m.m.m.m.m.F.F.m.m.m.m.m.m.m.F.m.",
"b.F.F.m.m.m.m.m.m.m.F.m.m.m.m.C.t                         O 9.A.V.m.m.F.F.m.m.m.m.m.m.m.m.m.m.m.m.F.m.m.m.m.m.m.m.F.F.m.m.m.m.m.",
"b.m.m.m.m.m.m.m.N.m.F.m.m.m.m.m.V.%                         o 4 y.C.N.m.F.m.m.m.m.m.m.m.N.m.m.N.m.F.m.N.m.m.m.m.m.m.m.N.m.m.m.m.",
"m.m.F.m.m.N.m.m.N.m.F.m.N.m.m.m.N.9..                           . 2 t.A.F.m.m.m.m.m.N.m.m.N.m.N.m.F.m.N.m.m.m.m.m.F.m.N.m.m.m.m.",
"b.F.F.b.m.m.F.F.m.m.F.F.m.m.F.F.b.F.4                               . O F.C.V.b.F.F.m.n.F.F.F.m.F.F.F.F.m.F.F.m.m.F.F.m.m.F.F.m.",
"m.m.m.N.m.m.F.m.N.m.N.m.m.m.m.F.m.m.C.w                                   = ^ C.F.m.m.N.m.F.m.N.m.m.m.m.N.F.m.m.N.N.m.m.N.m.F.m.",
"m.m.m.m.m.m.F.m.m.m.m.m.m.m.m.F.m.m.m.C.x O                                   < F.C.N.m.m.F.m.m.m.m.m.m.m.m.m.m.m.m.m.m.m.m.F.m.",
"m.m.m.m.m.m.F.F.m.m.m.m.m.m.m.F.m.m.m.m.V.r.O                                     < m.C.b.F.m.m.m.m.m.m.m.F.F.m.m.m.m.m.m.m.F.m.",
"m.F.F.m.m.m.m.m.m.m.F.F.m.m.m.m.m.m.F.F.m.V.C.6 o                                     6 C.N.m.m.m.F.m.m.m.m.m.m.m.F.F.m.m.m.m.m.",
"m.m.F.m.m.m.m.m.N.m.F.m.N.m.N.m.m.N.m.F.N.m.m.C.b.4 .                                   2 N.N.m.m.F.m.N.m.m.m.N.m.m.m.N.N.N.N.N.",
"m.m.F.m.m.m.m.m.m.m.F.m.m.m.m.m.m.m.m.F.m.m.m.m.N.C.t.@ .                                 # y.V.m.F.m.m.m.m.m.m.m.F.m.m.m.m.m.m.",
"F.F.F.F.F.F.F.F.F.F.F.F.F.F.F.F.F.F.F.F.F.F.F.F.F.F.F.F.F.@                                 . x F.F.F.F.F.F.F.F.F.F.F.F.F.F.F.F.",
"m.m.m.m.m.m.F.m.m.m.m.m.m.m.m.F.m.m.m.m.m.m.m.F.m.m.m.m.N.C.c.4                               o c.N.m.m.m.F.m.m.m.m.m.m.m.m.F.m.",
"m.m.N.N.N.N.F.m.N.N.N.N.N.N.N.F.N.N.N.N.N.N.N.F.m.N.N.N.m.m.N.C.F.t #                           - V.m.N.N.m.m.N.N.N.N.N.N.m.F.N.",
"m.m.m.m.m.m.F.F.m.m.m.m.m.m.m.F.m.m.m.m.m.m.m.F.m.m.m.m.m.m.m.m.F.C.N.4 .                         t C.m.m.F.F.m.m.m.m.m.m.m.F.m.",
"F.F.F.F.F.F.F.F.F.F.F.F.F.F.F.F.F.F.F.F.F.F.F.F.F.F.F.F.F.F.F.F.F.F.F.F.F.,                         F.F.F.F.F.F.F.F.F.F.F.F.F.F.",
"m.m.F.m.N.N.N.N.N.m.F.m.N.m.m.m.N.N.m.F.m.m.m.m.m.m.m.F.N.N.N.m.m.m.m.m.F.C.9.@                   . y.N.m.m.m.m.m.m.m.N.m.m.m.m.",
"m.m.F.m.m.m.m.m.N.m.F.m.N.m.m.m.m.m.m.F.m.N.m.m.m.N.m.F.N.m.m.m.m.m.N.m.F.m.V.m.:                   t V.m.N.N.N.N.m.m.N.N.N.N.N.",
"m.F.F.m.F.F.F.F.F.F.F.F.m.m.N.F.F.m.F.F.m.F.F.F.F.m.F.F.F.m.F.F.F.F.m.F.F.m.F.N.F.                  ; F.F.F.F.F.m.F.F.m.F.F.F.F.",
"m.m.m.m.m.m.F.F.m.m.m.m.C.w .   w C.m.m.m.m.m.F.m.m.m.m.m.m.m.m.F.m.m.m.m.m.m.m.F.x .               : A.m.F.F.m.m.m.m.m.m.m.F.m.",
"m.m.N.N.N.N.F.m.N.N.N.m.V.t     4 C.m.N.N.N.N.F.m.N.N.N.N.N.N.m.F.N.N.N.N.N.N.N.F.C.<               < C.m.m.m.N.N.N.N.N.N.m.F.N.",
"m.m.m.m.m.m.F.m.m.m.m.m.V.u     # N.m.m.m.m.m.F.m.m.m.m.m.m.m.m.F.m.m.m.m.m.m.m.F.C.t               < C.m.F.m.m.m.m.m.m.m.m.F.m.",
"F.F.F.F.F.F.F.F.F.F.F.F.F.F.      F.F.F.F.F.F.F.F.F.F.F.F.F.F.F.F.F.F.F.F.F.F.F.F.F.F.              * F.F.F.F.F.F.F.F.F.F.F.F.F.",
"m.m.F.N.N.N.N.N.N.m.F.m.N.9.      4 C.F.m.m.m.m.m.m.m.F.N.N.N.N.N.N.N.m.F.N.N.N.m.N.c..             w C.m.N.N.N.N.F.m.N.m.m.m.m.",
"m.m.m.m.m.m.m.m.N.m.F.m.N.c..     @ m.F.m.N.N.m.m.N.m.F.N.m.m.m.m.m.m.m.F.m.m.m.m.N.y..           . t.N.m.m.m.m.m.m.m.m.m.m.m.m.",
"m.m.F.m.m.m.m.m.m.m.F.m.m.c..       % F.m.m.m.m.m.m.m.F.m.m.m.m.m.m.m.F.F.m.m.m.m.V.t             . C.m.m.m.m.m.m.F.F.m.m.m.m.m.",
"m.m.m.m.m.m.F.F.m.m.m.m.m.m.o         t C.m.m.F.F.m.m.m.m.m.m.F.F.m.m.m.m.m.m.m.F.F.,             4 A.m.m.F.F.m.m.m.m.m.m.F.F.m.",
"m.m.m.m.N.m.F.m.N.m.m.m.N.N.#         @ y.V.m.F.m.N.m.m.m.m.N.m.F.m.N.N.N.m.N.m.F.N.$           @ m.N.m.N.m.m.m.m.m.m.m.m.m.F.m.",
"b.m.m.m.m.m.F.m.m.m.m.m.m.N.$           O t.C.F.m.m.m.m.m.m.m.m.F.m.m.m.m.m.m.m.F.2             h V.m.m.m.m.m.m.N.m.m.m.m.m.F.m.",
"F.F.F.F.F.F.F.F.F.F.F.F.F.F.O             . 3 F.F.F.F.F.F.F.F.F.F.F.F.F.F.F.F.F.F.            @ F.F.F.F.F.F.F.F.F.F.F.F.F.F.F.F.",
"c.b.F.b.m.m.m.m.m.m.F.m.m.C.:                 ; 9.C.V.F.m.m.m.m.m.m.m.F.F.V.V.4             : V.m.F.m.m.m.m.m.m.m.F.m.N.m.m.m.m.",
":.r.c.b.b.m.m.m.m.m.F.m.m.C.2     X -           . < ^ F.V.C.C.C.C.C.C.V.F.h $             : N.N.m.F.m.N.N.N.N.N.N.m.m.N.N.N.N.N.",
"=.:.F.c.b.b.n.m.m.m.F.m.m.S.<     % F.F.              . : 4 4 6 6 4 2 #                 ; V.N.m.m.F.m.m.m.m.m.m.m.F.m.m.m.m.m.m.",
"n /  .:.F.c.F.F.b.F.m.m.b.F.,   . 9.F.F.9.;                                         = a F.F.F.m.m.m.m.m.m.F.F.m.m.m.m.m.m.F.F.m.",
"I n { o.:.h.F.b.b.n.m.m.m.V.h   8 V.m.m.N.C.9.#                               o @ ^ V.V.m.F.m.N.m.m.m.m.m.m.m.m.m.m.m.m.m.m.F.m.",
"s d n A { o.F.h.c.b.b.b.m.m.m.F.N.m.m.m.m.m.V.F.9.w , + . . .     . . O = 4 x m.F.V.m.m.m.F.m.N.m.m.m.m.N.m.m.m.N.m.m.m.N.m.F.m.",
"F.F.F.F.F.F.F.F.F.F.F.F.F.F.F.F.F.F.F.F.F.F.F.F.F.F.F.F.F.F.F.F.F.F.F.F.F.F.F.F.F.F.F.F.F.F.F.F.F.F.F.F.F.F.F.F.F.F.F.F.F.F.F.F.",
"y i F.s f I n  . .:.F.c.c.b.b.m.m.m.m.F.m.m.m.m.m.m.m.F.N.V.V.V.V.N.N.F.F.m.m.m.m.m.m.m.m.m.m.m.m.F.m.m.m.m.m.m.m.F.m.m.m.m.m.m.",
"y y g g i s d I {  .F.:.h.c.b.b.b.m.m.F.m.m.m.N.N.N.m.F.m.m.m.m.m.m.m.m.F.N.N.N.N.N.N.N.N.N.N.N.m.F.m.N.N.N.N.N.N.m.m.N.N.m.m.m.",
"q q F.g i i s d n A F. .:.h.c.c.b.b.b.F.m.m.m.m.m.m.m.F.m.m.m.m.m.m.m.F.F.m.m.m.m.m.m.m.m.m.m.m.m.F.m.m.m.m.m.m.m.F.m.m.m.m.m.m.",
"9 9 9 q y g F.F.s s F.A A  .F.F.:.c.c.F.b.b.b.F.F.m.m.F.m.m.m.F.F.m.m.m.F.m.m.m.F.F.m.m.m.F.F.m.m.F.m.m.m.F.F.m.m.m.n.m.m.F.F.b.",
"0 0 9 9 9 y F.g i i s I n W { F.:.r.c.c.c.b.b.F.m.m.m.m.m.m.m.m.F.m.N.m.N.N.N.N.F.m.N.N.m.F.m.N.N.N.N.m.N.m.m.m.m.m.m.m.m.b.F.c.",
"0 0 0 0 9 9 F.y y g i i s d n F.{  .o.:.:.h.c.F.b.b.b.b.m.m.m.m.F.m.m.m.m.m.m.m.F.m.m.m.m.F.m.m.m.m.m.m.m.m.m.m.m.m.m.b.b.c.F.:.",
"F.F.F.F.F.9 F.F.q F.F.F.F.F.F.F.F.F.F.F.F.F.F.F.F.F.F.F.F.F.F.F.F.m.F.F.F.F.F.m.F.F.m.F.F.F.F.m.F.F.F.F.m.F.F.F.F.F.F.F.c.F.F.F."
};
