/* XPM */
static const char *WEST_WALL[] = {
/* columns rows colors chars-per-pixel */
"64 64 150 2 ",
"   c #000001",
".  c #060708",
"X  c #070809",
"o  c #0A0B0D",
"O  c #0D0F10",
"+  c #0F1112",
"@  c #121416",
"#  c #141619",
"$  c #16191B",
"%  c #191C1F",
"&  c #1A1D21",
"*  c #1E2125",
"=  c #202427",
"-  c #22262A",
";  c #252A2E",
":  c #272C30",
">  c #292E33",
",  c #2C3136",
"<  c #2D353D",
"1  c #30363C",
"2  c #32383E",
"3  c #2E3740",
"4  c #2F3841",
"5  c #333C44",
"6  c #383F45",
"7  c #363F48",
"8  c #394046",
"9  c #374049",
"0  c #3B444C",
"q  c #3C444C",
"w  c #3D454C",
"e  c #3C444D",
"r  c #3C454D",
"t  c #3D454D",
"y  c #3E454C",
"u  c #3E464D",
"i  c #3D454E",
"p  c #3C464E",
"a  c #3D464E",
"s  c #3D464F",
"d  c #3E464E",
"f  c #3E474E",
"g  c #3F474E",
"h  c #3E474F",
"j  c #3F474F",
"k  c #3A424A",
"l  c #3F484F",
"z  c #3F484F",
"x  c #3F4850",
"c  c #3F4851",
"v  c #3F4850",
"b  c #40484F",
"n  c #40484F",
"m  c #404850",
"M  c #414850",
"N  c #404950",
"B  c #414950",
"V  c #404951",
"C  c #414951",
"Z  c #414A51",
"A  c #414952",
"S  c #414A52",
"D  c #414A53",
"F  c #424B53",
"G  c #434B53",
"H  c #434C53",
"J  c #424B54",
"K  c #434C54",
"L  c #434C55",
"P  c #434D55",
"I  c #444C54",
"U  c #444D55",
"Y  c #444D56",
"T  c #454D56",
"R  c #444E56",
"E  c #454E56",
"W  c #454E57",
"Q  c #454F57",
"!  c #464F57",
"~  c #434C54",
"^  c #464F58",
"/  c #474F58",
"(  c #484F58",
")  c #485057",
"_  c #465058",
"`  c #475058",
"'  c #475059",
"]  c #475159",
"[  c #47515A",
"{  c #475059",
"}  c #485058",
"|  c #485158",
" . c #495158",
".. c #485159",
"X. c #495159",
"o. c #485259",
"O. c #48515A",
"+. c #49515A",
"@. c #48515B",
"#. c #49515B",
"$. c #48525A",
"%. c #49525A",
"&. c #49535A",
"*. c #48525B",
"=. c #49525B",
"-. c #49535B",
";. c #4A525A",
":. c #4A535A",
">. c #4A535B",
",. c #4B535B",
"<. c #4A545B",
"1. c #4B545B",
"2. c #49535D",
"3. c #4A535C",
"4. c #4B535C",
"5. c #4A535D",
"6. c #4B535D",
"7. c #49545C",
"8. c #4A545C",
"9. c #4B545C",
"0. c #4A545D",
"q. c #4B545D",
"w. c #4B555E",
"e. c #4C555E",
"r. c #4C555F",
"t. c #4C565E",
"y. c #4D565E",
"u. c #4C565F",
"i. c #4D565F",
"p. c #4D575F",
"a. c #4E575F",
"s. c #4A535B",
"d. c #4D5760",
"f. c #4E5760",
"g. c #4D5860",
"h. c #4E5860",
"j. c #4F5861",
"k. c #4F5961",
"l. c #4F5961",
"z. c #505962",
"x. c #505A62",
"c. c #505A63",
"v. c #505A64",
"b. c #515B64",
"n. c #525B64",
"m. c #535D66",
"M. c #515A63",
"N. c #57626D",
"B. c None",
"V. c black",
/* pixels */
"< < B.3 3 4 3 5 5 5 B.5 5 5 5 5 5 5 5 B.5 5 5 5 5 5 5 B.5 5 5 5 5 5 5 4 B.5 5 5 5 5 5 5 5 5 5 5 5 B.5 5 5 5 5 5 5 B.5 5 5 5 5 5 ",
"3 4 B.5 5 5 5 5 5 5 B.5 5 5 5 5 5 5 5 B.5 5 5 5 5 5 5 B.5 5 5 5 5 5 5 5 B.5 5 5 5 5 5 5 5 5 5 5 5 B.5 5 5 5 5 5 5 5 5 5 5 5 5 5 ",
"5 5 B.5 5 5 5 5 5 5 B.5 5 5 5 5 5 5 5 B.5 5 5 5 5 5 5 B.5 5 5 5 5 5 5 B.B.5 5 5 5 5 5 5 5 5 5 5 5 B.5 5 5 5 9 5 5 B.5 7 5 5 5 5 ",
"5 5 5 5 5 5 B.B.5 5 5 5 5 5 5 B.5 5 5 5 5 5 5 B.B.5 5 5 5 5 5 B.B.5 5 5 7 5 5 5 B.B.7 7 9 B.9 9 9 9 9 k k B.B.k k k 9 k 9 k B.9 ",
"5 5 5 5 5 5 B.9 9 9 k k k k k B.k k k k k k 9 B.k k k k 9 k k k B.k k k k k k k B.k k k k B.k k k k k k k k k k 0 k k k k k B.k ",
"5 5 5 9 9 k B.k k k 0 k 0 h 0 B.0 0 0 0 h 0 k B.0 h 0 0 h 0 h h B.h h h h h h h B.h h h h B.h h h h h h h h h h h h h h h h B.0 ",
"B.B.B.B.B.k B.B.0 B.B.B.B.B.B.B.B.B.B.B.B.B.B.B.B.B.B.B.B.B.h B.B.B.B.B.B.B.B.B.B.B.B.B.B.B.B.B.B.B.B.B.B.B.B.B.B.B.B.B.B.B.B.B.",
"k B.B.h h V x V V V B.V V K V K V V B.B.V V V V V K K B.U K K K V K K B.B.J K K K V V V V V V V V B.V U K K U U U B.U U U U V V ",
"5 5 5 k 0 h h h h h B.h h x x V h V K B.K J V K K V h B.V V V x x V V h B.x V V V V K K K K K K K B.K V V V V V V h l V V V x V ",
".                                 > u.B.U U U U O.&                       .       $ _ U U U U U K B.6                     .   @ ",
"                                  * B.B.U B.U B.B.#                               + w.U _ B.B.B.B.B.,                         o ",
"k 5 ; X                   & 2 B.V _ O.O.O.O.O.B.O.U 6 $                   % 6 h B.H O.O.O.B._ O.O.O._ V h ;             # , B.H ",
"V U O.V &               # u.d.B.w.O.O.O.O.O.O.B.O.O.u.u.*               X O.d.5.B.O.O.O.O.B.O.O.O.O.O.5.5.N.*         * w.j.B.5.",
"V V V _ O..             & v.U B._ O.O.O.O.O.O.B.B.O.^ 5.U               o ^ _ _ B.B.O.O.O.B.O.O.O.O.O.O.^ B.B.      . 5.5.B.B.O.",
"J B.B.U u.5             # j.O.O.O.O.B.B.O.O.O.O.O.O.O.B.v.<               V w.O.O.O.O.O.O.O.O.5.O.B.O.O.O.z.>       < v.O.5.O.O.",
"K U U _ _ w.%           + O.w.O.O.1.O.B.O.O.O.O.O.1.O.B.O.u.$             8 u.O.O.O.O.O.w.w.w.u.O.B.O.O.O.j.;       O.w.O.w.w.w.",
"U U B._ O.u.5             k u.O.1.1.O.B.1.O.O.O.O.5.O.B.O.z.>             ; z.O.O.O.O.O.O.1.1.O.O.B.O.O.1.w.+     o z.O.O.O.1.1.",
"U B.B.B.B.O.B.            & B.B.B.O.B.B.O.O.O.B.B.O.B.B.B.B.o             o 5.O.B.B.O.O.B.B.B.B.B.B.B.O.B.2       B.B.B.B.B.B.B.",
"U _ _ O.O._ B.%           @ w.B.O.5.5.5.5.u.5.B.O.5.4.1.u.h                 h u.B.O.w.O.O.B.O.w.5.5.O.O.z.-     # u.O.O.w.O.B.5.",
"^ _ O.O.O.O.B.b o           k B.O.1.O.O.O.O.O.B.O.O.O.O.j.;                 , j.B.O.1.w.O.B.O.O.O.O.O.w.O.+     2 z.O.O.O.O.B.1.",
"U _ O.O.O.O.B.B.$           * B.O.O.O.O.O.O.O.B.B.O.O.O.O.o                 # u.B.O.O.O.O.B.O.O.O.O.O.j.5       H w.O.O.O.1.B.O.",
"_ B.B.O.O.O.O.z.,           X w.O.O.B.B.O.O.O.O.O.O.O.B.>     . 2             V u.O.O.O.O.O.O.O.O.B.O.v.#     % z.B.B.O.O.O.O.O.",
"_ O.O.O.O.O.O.w.O.o           h u.O.O.B.1.1.O.O.O.O.O.B.&     * z.@           5 j.O.O.O.O.1.1.,.1.B.w.O.o     8 u.O.O.5.O.O.O.O.",
"O.O.B.O.O.O.O.O.j.-           : z.O.O.B.O.1.O.O.O.O.w.B.      6 n.>           * j.O.O.O.O.u.w.u.1.B.j.5     @ w.5.B.O.w.5.5.5.5.",
"_ B.B.O.O.O.B.B.j.<           o B.O.B.B.O.B.O.B.B.U B.$     . B.B.6           X B.B.O.O.B.B.B.O.B.B.B.@     & B.( B.B.O.O.B.B.O.",
"O.O.O.w.O.O.B.1.w.w.+           w u.O.w.w.w.5.B.O.O.a.$     ; v.B.u.#           B.d.O.5.O.B.O.1.O.u.U .     h u.O.u.,.,.1.O.B.O.",
"O.O.O.O.O.5.B.O.O.j.>           > j.O.O.O.O.O.B.O.u.V .     b u.B.j.,           X z.O.5.O.B.O.5.O.j.1     . d.O.O.O.O.5.5.O.B.O.",
"O.O.O.O.O.O.B.B.O.u.k           + w.O.O.O.O.O.B.) z.;     o u.O.B.u.k             w.O.O.O.B.O.O.O.u.#     B.B.O.O.O.O.O.O.O.B.O.",
"_ B.B.O.O.O.O.O.O.O.B.o           6 B.B.O.O.O.O.O.u.X     ; n.O.O.O.u.+           k u.O.O.O.O.O.u.B.    X U w.O.O.B.B.O.O.O.O.O.",
"O.O.B.4.4.5.5.5.w.O.B.,           , v.B.1.w.w.O.u.h     . U u.O.5.O.j.>           < j.O.w.w.w.O.j.#     - j.O.5.4.O.5.w.w.w.w.w.",
"O.O.B.O.1.O.O.1.O.O.B.V X         # u.B.O.O.O.O.j.;     * j.O.O.O.O.u.w           % u.O.O.O.O.O.w..     k u.O.O.O.B.O.O.O.O.O.O.",
"B.B.B.B.B.B.B.B.B.B.B.B.O           B.B.B.B.B.B.B.X     : B.B.B.B.B.B.B.          . B.B.B.B.B.B.1     X B.B.B.B.B.B.B.B.B.B.B.B.",
"O.O.w.O.1.O.B.O.w.O.O.j.2           : z.O.w.O.B.<     o O.w.O.O.B.O.O.z.,           2 j.O.B.O.z.-     > z.B.O.O.O.O.O.O.5.O.B.O.",
"O.O.w.w.w.w.B.O.w.w.O.w.O.o         # u.O.O.O.B.#     > j.O.w.1.B.O.O.u.V .         - j.O.B.O.O.+   X H u.O.O.1.w.1.w.1.w.O.B.1.",
"O.O.O.O.O.O.B.B.O.O.O.O.z.%           h u.O.w.B.      k u.O.O.O.B.O.O.O.u.+         o O.O.B.j.6     # z.O.B.B.O.O.w.5.5.5.O.B.O.",
"B.B.B.B.B.B.B.B.B.B.B.B.B.,           # B.B.B.=     o B.B.B.B.B.B.B.B.B.B.=           B.B.B.B.O     : B.B.B.B.B.B.B.B.B.B.B.B.B.",
"O.O.B.O.1.1.1.1.w.O.B.O.w.O.O         # u.O.d.*     , B.O.1.1.O.O.O.5.O.B.V           > j.O.O.o   X O.w.O.O.O.O.,.O.O.1.O.O.,.O.",
"O.O.B.O.1.1.O.O.w.O.B.O.O.j.>           V u.H .   o U B.O.1.1.1.1.1.w.O.B.u.%         # w.j.5     $ j.O.5.5.5.5.5.O.O.w.5.5.w.5.",
"O.B.B.O.B.B.B.B.B.B.B.B.O.B.5           = B.-     + B.B.B.O.B.B.B.B.O.B.B.m.=           k B.#     B.B.B.B.B.B.B.O.B.B.O.B.B.B.B.",
"O.O.O.O.O.1.B.B.1.O.O.O.O.O.u.          O v.+     5 j.O.O.O.O.O.B.O.O.O.O.u.V .         > B.    # u.O.O.O.B.B.O.O.1.1.O.1.O.B.O.",
"O.O.w.w.u.u.B.O.w.w.w.w.w.O.j.#         . 8 X   + O.w.O.w.u.u.1.B.1.w.w.5.O.u.%         * ;     1 j.O.w.w.O.O.O.w.5.w.w.u.O.B.1.",
"O.O.O.O.1.1.B.O.O.O.O.O.O.O.u.B..         o     - z.O.O.1.O.O.1.B.O.O.O.O.O.j.,         . o   . U u.O.O.O.B.O.O.O.O.O.O.5.O.B.1.",
"B.B.B.B.B.B.B.B.B.B.B.B.B.B.B.B.o               B.B.B.B.B.B.B.B.B.B.B.B.B.B.B.B.              O B.B.B.B.B.B.B.B.B.B.B.B.B.B.B.B.",
"O.O.B.O.1.O.1.O.1.O.B.O.1.O.O.j.2             # u.O.O.B.O.1.O.1.O.O.1.O.B.O.O.j.%             6 j.B.O.1.O.O.O.1.O.B.O.1.O.1.,.1.",
"O.O.O.O.O.O.O.O.1.O.B.O.O.O.O.w._ o           1 j.O.O.B.1.O.O.O.O.O.1.O.B.O.O.j.2           @ O.O.B.O.1.1.1.1.O.O.O.O.w.O.O.O.1.",
"O.O.B.O.O.O.O.O.O.O.B.O.O.O.O.O.z.#           V w.O.O.B.O.O.O.O.O.O.O.B.B.O.O.w.V           & v.^ B.O.O.O.O.O.O.O.B.B.O.O.O.O.O.",
"O.O.O.O.O.O.B.B.O.O.O.O.O.O.B.B.z.1         % B.B.O.O.O.O.O.O.B.B.O.O.O.O.O.O.O.B.o         k u.O.O.O.O.O.B.B.O.O.O.O.O.O.B.B.O.",
"O.O.O.O.1.O.B.O.u.1.O.1.O.O.1.B.w.O.O       8 B.O.1.O.O.O.O.O.1.B.O.w.1.1.1.1.O.B.,       X u.O.O.O.,.1.w.O.O.O.1.O.O.O.O.O.B.O.",
"_ O.O.O.O.O.B.O.O.O.O.O.O.O.O.B.O.j.;     O O.B.O.O.O.O.O.O.O.O.B.O.O.O.O.O.O.O.B.V o     B.j.O.O.O.O.O.O.O.O.O.w.1.5.5.w.O.B.O.",
"B.B.B.B.B.B.B.B.B.B.B.B.B.B.B.B.B.B.B.    # B.B.B.B.B.B.B.B.B.B.B.B.B.B.B.B.B.B.B.B.o     B.B.B.B.B.B.B.B.B.B.B.B.B.B.B.B.B.B.B.",
"U U B._ O.O.O.O.5.O.B.5.w.5.5.O.O.5.5.% ; V u.O.1.w.O.B.O.5.5.5.O.O.4.B.B.5.5.5.O.u.k - 2 u.O.1.O.B.O.5.w.5.O.O.1.B.O.1.O.1.O.O.",
"V U U U _ O.O.O.O.O.B.1.u.w.w.u.w.w.O.B.z.u.O.w.,.u.1.B.w.w.u.u.u.w.u.O.B.5.1.u.w.O.u.v.j.O.w.w.O.B.O.w.u.w.w.w.u.O.O.w.w.w.w.w.",
"V V B.U U _ O.O.O.O.B.O.O.O.O.O.O.O.B.B.O.O.5.1.O.5.O.B.O.O.O.O.O.O.O.B.B.O.O.O.1.w.O.O.O.O.O.O.O.B.O.O.O.O.O.O.O.B.O.O.O.O.O.O.",
"k h x V B.K B.B.O.B.O.O.O.O.B.B.O.O.O.O.O.O.O.B.B.O.O.1.O.B.O.B.B.O.O.O.O.O.O.O.B.B.O.O.B.B.B.O.O.O.O.O.O.B.B.O.O.O.O.O.O.B.B.O.",
"k 0 h V V U B.U O.O.O.O.O.O.1.B.4.w.w.w.w.w.5.B.O.u.w.u.w.u.w.1.B.1.u.u.u.w.w.O.B.O.u.u.O.B.O.1.O.O.,.1.1.O.O.O.O.O.,.,.1.O.B.O.",
"5 k k h h V B.K U U _ O.O.O.O.B.1.1.O.O.O.O.O.B.O.O.O.O.O.O.O.1.B.O.1.1.1.O.O.O.B.O.1.,.O.B.O.5.5.5.5.w.5.O.O.5.5.5.w.5.5.O.B.5.",
"B.B.B.B.B.B.B.B.B.B.B.B.B.B.B.B.B.B.B.B.B.B.B.B.B.B.B.B.B.B.B.B.B.B.B.B.B.B.B.B.B.B.B.B.B.B.B.B.B.B.B.B.B.B.B.B.B.B.B.B.B.B.B.B.",
"5 5 B.5 9 k k l V V B.K U ^ _ O.O.O.O.B.O.1.O.O.O.1.O.B.O.O.O.O.O.O.O.B.B.O.O.O.1.O.O.O.O.1.1.1.O.B.O.1.1.1.1.1.O.B.O.1.1.1.1.O.",
"4 5 5 5 5 5 k 0 h x B.V K U U _ O.O.O.B.O.O.5.w.w.w.O.B.w.w.w.w.w.w.u.O.B.5.w.w.w.w.w.w.w.w.w.w.O.B.O.u.w.w.w.w.5.O.O.w.w.O.O.O.",
"< 3 B.5 5 5 5 9 k h B.x V K U U U _ _ B.O.O.O.O.5.5.O.B.O.5.O.5.5.O.5.B.B.5.O.O.5.5.5.O.O.O.O.O.O.B.O.O.O.O.O.O.O.B.O.O.O.O.O.O.",
"< < < 3 3 5 B.B.5 9 B.0 0 h B.B.V U U B.^ _ O.B.B.O.O.B.O.5.5.B.B.O.5.O.B.O.5.O.B.B.5.O.O.B.B.O.O.B.O.O.O.B.B.O.O.O.O.O.O.B.B.^ ",
"< < < < 3 5 B.5 5 5 9 k k h h B.V K U U U _ _ B.O.O.O.O.O.O.O.O.B.O.O.5.5.w.w.5.B.O.w.w.O.B.O.w.w.w.5.5.5.O.O.O.O.O.O.O.O._ B.U ",
"< < < < < 3 B.5 5 5 5 5 7 k k B.h x V V V K U B._ _ _ O.O.O.O.O.B.O.O.O.O.O.O.O.B.O.O.O.O.B.O.O.O.O.O.O.O.O.O.O.O.O.O.O._ U B.K ",
"B.B.B.B.B.< B.B.< B.B.B.B.B.B.B.B.B.B.B.B.B.B.B.B.B.B.B.B.B.B.B.B.O.B.B.B.B.B.O.B.B.O.B.B.B.B._ B.B.B.B._ B.B.B.B.B.B.B.K B.B.B."
};
